<?xml version="1.0" encoding="UTF-8"?>
<!DOCTYPE svg PUBLIC "-//W3C//DTD SVG 1.1//EN" "http://www.w3.org/Graphics/SVG/1.1/DTD/svg11.dtd">
<svg xmlns="http://www.w3.org/2000/svg" version="1.1" width="500px" height="500px" style="shape-rendering:geometricPrecision; text-rendering:geometricPrecision; image-rendering:optimizeQuality; fill-rule:evenodd; clip-rule:evenodd" xmlns:xlink="http://www.w3.org/1999/xlink">
<g><path style="opacity:0.952" fill="#8e2dc7" d="M 76.5,-0.5 C 82.5,-0.5 88.5,-0.5 94.5,-0.5C 114.591,7.3357 122.424,22.0024 118,43.5C 114,54.1667 106.667,61.5 96,65.5C 95.5,103.165 95.3333,140.832 95.5,178.5C 114.833,178.5 134.167,178.5 153.5,178.5C 153.334,172.158 153.5,165.825 154,159.5C 155.167,157 157,155.167 159.5,154C 186.165,153.5 212.831,153.333 239.5,153.5C 239.667,133.831 239.5,114.164 239,94.5C 221.517,86.8723 213.85,73.539 216,54.5C 221.135,38.0202 232.302,29.3535 249.5,28.5C 273.509,31.0132 284.676,44.3466 283,68.5C 279.939,81.2288 272.272,89.8955 260,94.5C 259.5,114.164 259.333,133.831 259.5,153.5C 272.833,153.5 286.167,153.5 299.5,153.5C 299.333,129.498 299.5,105.498 300,81.5C 301.167,79 303,77.1667 305.5,76C 329.833,75.3333 354.167,75.3333 378.5,76C 384.025,78.9188 385.858,83.4188 384,89.5C 382.833,92 381,93.8333 378.5,95C 359.17,95.5 339.836,95.6666 320.5,95.5C 320.5,114.833 320.5,134.167 320.5,153.5C 326.842,153.334 333.175,153.5 339.5,154C 342,155.167 343.833,157 345,159.5C 345.5,186.165 345.667,212.831 345.5,239.5C 365.169,239.667 384.836,239.5 404.5,239C 414.395,217.919 430.395,211.252 452.5,219C 469.182,229.709 474.349,244.543 468,263.5C 457.314,282.286 441.814,287.786 421.5,280C 413.298,275.467 407.632,268.8 404.5,260C 384.836,259.5 365.169,259.333 345.5,259.5C 345.5,272.833 345.5,286.167 345.5,299.5C 369.502,299.333 393.502,299.5 417.5,300C 420,301.167 421.833,303 423,305.5C 423.333,348.167 423.667,390.833 424,433.5C 446.981,444.82 452.981,462.153 442,485.5C 436.995,492.351 430.495,497.018 422.5,499.5C 416.5,499.5 410.5,499.5 404.5,499.5C 384.36,491.56 376.527,476.893 381,455.5C 384.974,444.859 392.308,437.526 403,433.5C 403.5,395.835 403.667,358.168 403.5,320.5C 384.167,320.5 364.833,320.5 345.5,320.5C 345.666,326.842 345.5,333.175 345,339.5C 343.833,342 342,343.833 339.5,345C 312.835,345.5 286.169,345.667 259.5,345.5C 259.333,365.169 259.5,384.836 260,404.5C 281.471,414.233 288.138,430.233 280,452.5C 269.291,469.182 254.457,474.349 235.5,468C 215.925,456.553 210.758,440.386 220,419.5C 224.837,412.584 231.17,407.584 239,404.5C 239.5,384.836 239.667,365.169 239.5,345.5C 226.167,345.5 212.833,345.5 199.5,345.5C 199.667,369.502 199.5,393.502 199,417.5C 197.833,420 196,421.833 193.5,423C 169.167,423.667 144.833,423.667 120.5,423C 114.458,419.252 112.958,414.085 116,407.5C 117.039,406.29 118.206,405.29 119.5,404.5C 119.369,405.239 119.536,405.906 120,406.5C 121.067,405.809 122.234,405.309 123.5,405C 138.672,404.831 153.672,404.331 168.5,403.5C 171.833,403.5 175.167,403.5 178.5,403.5C 178.5,384.167 178.5,364.833 178.5,345.5C 172.158,345.666 165.825,345.5 159.5,345C 157,343.833 155.167,342 154,339.5C 153.5,312.835 153.333,286.169 153.5,259.5C 133.831,259.333 114.164,259.5 94.5,260C 84.6046,281.081 68.6046,287.748 46.5,280C 29.8179,269.291 24.6512,254.457 31,235.5C 41.6993,216.71 57.1993,211.21 77.5,219C 85.7017,223.533 91.3683,230.2 94.5,239C 114.164,239.5 133.831,239.667 153.5,239.5C 153.5,226.167 153.5,212.833 153.5,199.5C 129.498,199.667 105.498,199.5 81.5,199C 79,197.833 77.1667,196 76,193.5C 75.6667,150.833 75.3333,108.167 75,65.5C 54.7138,56.33 47.7138,40.9966 54,19.5C 58.782,9.70488 66.282,3.03822 76.5,-0.5 Z M 84.5,19.5 C 97.4636,22.4247 100.964,29.7581 95,41.5C 87.0067,47.2335 80.0067,46.2335 74,38.5C 71.2625,28.637 74.7625,22.3037 84.5,19.5 Z M 248.5,48.5 C 260.722,50.9455 264.555,57.9455 260,69.5C 255.053,74.6846 249.219,75.8513 242.5,73C 234.5,65.6667 234.5,58.3333 242.5,51C 244.611,50.1553 246.611,49.322 248.5,48.5 Z M 173.5,173.5 C 224.167,173.5 274.833,173.5 325.5,173.5C 325.5,224.167 325.5,274.833 325.5,325.5C 274.833,325.5 224.167,325.5 173.5,325.5C 173.5,274.833 173.5,224.167 173.5,173.5 Z M 224.5,224.5 C 241.167,224.5 257.833,224.5 274.5,224.5C 274.5,241.167 274.5,257.833 274.5,274.5C 257.833,274.5 241.167,274.5 224.5,274.5C 224.5,257.833 224.5,241.167 224.5,224.5 Z M 60.5,236.5 C 68.851,236.69 73.5177,240.857 74.5,249C 72.4805,261.011 65.8138,264.678 54.5,260C 48.2226,254.435 47.3893,248.269 52,241.5C 54.3978,238.892 57.2312,237.225 60.5,236.5 Z M 435.5,236.5 C 446.608,237.758 451.108,243.758 449,254.5C 442.686,263.416 435.353,264.416 427,257.5C 422.155,247.207 424.989,240.207 435.5,236.5 Z M 244.5,424.5 C 259.337,423.826 264.503,430.492 260,444.5C 253,452.5 246,452.5 239,444.5C 235.226,436.261 237.059,429.595 244.5,424.5 Z M 410.5,453.5 C 420.05,452.722 425.384,457.055 426.5,466.5C 423.725,477.719 417.059,481.219 406.5,477C 400.086,471.186 399.252,464.686 404,457.5C 406.095,455.875 408.261,454.542 410.5,453.5 Z"/></g>
<g><path style="opacity:0.913" fill="#8e2dc7" d="M 499.5,76.5 C 499.5,82.5 499.5,88.5 499.5,94.5C 488.877,118.434 471.543,124.934 447.5,114C 433.447,102.833 429.28,88.6659 435,71.5C 447.264,51.2223 464.097,46.389 485.5,57C 492.275,62.0737 496.942,68.5737 499.5,76.5 Z M 463.5,72.5 C 476.727,73.5292 481.227,80.1958 477,92.5C 470.902,99.2053 464.235,99.8719 457,94.5C 451.437,84.7341 453.604,77.4008 463.5,72.5 Z"/></g>
<g><path style="opacity:0.876" fill="#8e2dc7" d="M 404.5,75.5 C 417.47,74.7853 421.636,80.452 417,92.5C 410.77,96.9298 405.103,96.2631 400,90.5C 397.766,84.3687 399.266,79.3687 404.5,75.5 Z"/></g>
<g><path style="opacity:0.977" fill="#8e2dc7" d="M 209.5,204.5 C 236.169,204.333 262.835,204.5 289.5,205C 291.333,206.167 292.833,207.667 294,209.5C 294.667,236.167 294.667,262.833 294,289.5C 292.833,291.333 291.333,292.833 289.5,294C 262.833,294.667 236.167,294.667 209.5,294C 207.667,292.833 206.167,291.333 205,289.5C 204.333,262.833 204.333,236.167 205,209.5C 206.366,207.638 207.866,205.972 209.5,204.5 Z M 224.5,224.5 C 224.5,241.167 224.5,257.833 224.5,274.5C 241.167,274.5 257.833,274.5 274.5,274.5C 274.5,257.833 274.5,241.167 274.5,224.5C 257.833,224.5 241.167,224.5 224.5,224.5 Z"/></g>
<g><path style="opacity:0.912" fill="#8e2dc7" d="M -0.5,421.5 C -0.5,416.167 -0.5,410.833 -0.5,405.5C 5.7366,386.199 19.0699,377.699 39.5,380C 56.2191,384.935 65.2191,396.102 66.5,413.5C 65.2151,430.911 56.2151,442.078 39.5,447C 19.0877,449.308 5.75437,440.808 -0.5,421.5 Z M 31.5,400.5 C 44.8154,403.06 48.3154,410.394 42,422.5C 30.8055,429.043 23.3055,426.043 19.5,413.5C 20.8105,406.528 24.8105,402.195 31.5,400.5 Z"/></g>
<g><path style="opacity:0.903" fill="#8e2dc7" d="M 87.5,403.5 C 86.537,404.363 86.537,405.03 87.5,405.5C 89.6054,405.247 91.6054,404.913 93.5,404.5C 95.7488,405.08 97.4154,406.413 98.5,408.5C 97.9569,408.56 97.6236,408.893 97.5,409.5C 98.0505,411.657 98.7171,413.657 99.5,415.5C 97.6307,422.82 92.964,425.32 85.5,423C 79.1039,418.69 77.9372,413.19 82,406.5C 83.7409,405.242 85.5742,404.242 87.5,403.5 Z"/></g>
<g><path style="opacity:0.522" fill="#8e2dc7" d="M 87.5,403.5 C 89.7354,403.205 91.7354,403.539 93.5,404.5C 91.6054,404.913 89.6054,405.247 87.5,405.5C 86.537,405.03 86.537,404.363 87.5,403.5 Z"/></g>
<g><path style="opacity:0.722" fill="#8e2dc7" d="M 168.5,403.5 C 153.672,404.331 138.672,404.831 123.5,405C 122.234,405.309 121.067,405.809 120,406.5C 119.536,405.906 119.369,405.239 119.5,404.5C 135.756,403.516 152.089,403.182 168.5,403.5 Z"/></g>
<g><path style="opacity:0.766" fill="#8e2dc7" d="M 98.5,408.5 C 100.312,410.713 100.645,413.047 99.5,415.5C 98.7171,413.657 98.0505,411.657 97.5,409.5C 97.6236,408.893 97.9569,408.56 98.5,408.5 Z"/></g>
</svg>
