<?xml version="1.0" standalone="no"?>
<!DOCTYPE svg PUBLIC "-//W3C//DTD SVG 20010904//EN"
 "http://www.w3.org/TR/2001/REC-SVG-20010904/DTD/svg10.dtd">
<svg version="1.0" xmlns="http://www.w3.org/2000/svg"
 width="360.000000pt" height="218.000000pt" viewBox="0 0 360.000000 218.000000"
 preserveAspectRatio="xMidYMid meet">

<g transform="translate(0.000000,218.000000) scale(0.100000,-0.100000)"
fill="#ffbb2c" stroke="none">
<path d="M2535 2123 c-77 -19 -141 -130 -114 -200 11 -30 -3 -55 -22 -36 -17
17 -88 -2 -120 -33 -44 -42 -69 -120 -69 -214 l0 -80 -40 -6 c-46 -7 -46 -7
-55 -126 l-7 -77 29 -6 c48 -11 49 -12 19 -24 l-29 -12 7 -76 c4 -42 10 -89
13 -105 4 -21 2 -28 -10 -28 -21 0 -26 -20 -19 -76 6 -57 6 -74 -3 -209 -6
-79 -12 -107 -30 -135 -38 -60 -75 -138 -75 -160 0 -11 -9 -39 -21 -62 -16
-31 -19 -51 -15 -81 5 -28 -1 -65 -19 -128 -15 -49 -25 -101 -23 -116 3 -27 5
-28 75 -31 l73 -3 -6 73 c-8 89 7 150 41 172 14 9 25 24 25 33 0 9 14 45 30
80 17 36 30 80 30 102 0 37 15 63 80 139 11 13 20 31 20 41 0 33 41 139 61
157 10 9 19 25 19 36 0 26 14 22 30 -7 8 -14 22 -25 34 -25 15 0 35 -22 71
-76 51 -78 73 -98 99 -88 28 11 40 -33 26 -92 -10 -41 -10 -72 -1 -146 7 -51
16 -97 22 -102 14 -15 11 -119 -6 -166 -26 -73 -24 -77 53 -85 37 -4 105 -8
152 -8 73 -2 85 0 88 16 3 12 -9 22 -40 36 -24 10 -59 35 -78 55 -34 36 -35
40 -34 109 1 40 5 119 10 177 11 147 9 260 -3 268 -6 4 -26 43 -44 87 -37 89
-66 140 -114 200 -22 29 -31 50 -31 75 1 31 4 35 27 32 36 -3 50 32 56 149 5
90 4 97 -16 111 -17 12 -20 22 -15 42 l6 26 62 -34 c86 -47 133 -53 177 -21
40 30 58 60 59 96 0 15 9 33 20 40 17 13 18 19 8 60 -10 45 -10 46 27 82 38
37 38 37 127 37 52 0 88 4 88 10 0 6 48 10 124 10 73 0 127 4 131 10 7 11 -21
13 -133 10 -63 -2 -71 0 -66 15 4 10 2 15 -7 13 -9 -2 -16 11 -20 37 l-6 40
-2 -42 c0 -24 -5 -43 -11 -43 -5 0 -10 5 -10 10 0 6 -78 10 -215 10 -137 0
-215 4 -215 10 0 6 -7 10 -15 10 -8 0 -15 8 -16 18 -1 11 -4 8 -8 -8 -5 -19
-16 -27 -49 -34 -23 -5 -44 -7 -46 -5 -3 2 -6 18 -8 34 -2 24 1 31 19 33 13 2
24 13 28 29 8 34 -15 124 -35 131 -8 3 -26 13 -40 22 -29 20 -76 30 -105 23z
m375 -389 c0 -19 -40 -94 -51 -94 -4 0 -14 11 -23 24 -14 23 -14 26 0 40 8 9
20 16 25 16 6 0 8 4 5 9 -4 5 0 12 6 14 25 10 38 7 38 -9z"/>
<path d="M194 1871 c-85 -52 -96 -97 -92 -366 l3 -213 31 -39 c63 -77 66 -78
364 -78 259 0 266 1 302 23 37 23 69 66 83 110 l6 22 -300 0 -301 0 0 205 0
205 301 0 300 0 -6 23 c-12 40 -49 86 -86 106 -35 20 -53 21 -305 21 -246 0
-272 -2 -300 -19z"/>
<path d="M1140 1883 c-75 -28 -109 -94 -110 -208 0 -105 25 -159 89 -192 43
-22 53 -23 293 -23 l248 0 0 -70 0 -70 -314 0 -314 0 11 -36 c13 -43 64 -89
114 -103 51 -15 496 -14 548 0 53 15 110 73 125 129 15 57 8 165 -13 207 -10
18 -33 45 -54 60 l-36 28 -264 3 -263 3 0 65 0 64 311 0 310 0 -6 23 c-12 38
-40 76 -75 102 l-34 25 -275 -1 c-152 0 -283 -3 -291 -6z"/>
<path d="M188 960 c-20 -11 -47 -36 -60 -57 -22 -37 -23 -44 -23 -278 0 -233
1 -241 23 -277 12 -20 37 -46 55 -57 30 -19 48 -20 322 -21 324 0 338 2 382
69 21 32 23 45 23 187 l0 154 -260 0 c-143 0 -260 -2 -260 -5 0 -18 34 -66 59
-84 26 -19 43 -21 175 -21 l147 0 -3 -82 -3 -83 -252 -3 -253 -2 -5 22 c-3 13
-4 113 -3 223 l3 200 328 3 c359 3 346 0 304 63 -44 66 -59 69 -377 69 -262
-1 -288 -2 -322 -20z"/>
<path d="M1154 966 c-38 -17 -71 -57 -85 -105 -7 -23 -9 -118 -7 -256 3 -246
8 -266 78 -313 34 -23 36 -23 320 -20 276 3 286 4 316 25 64 46 69 71 69 334
0 234 0 236 -25 272 -13 20 -41 45 -61 56 -35 20 -53 21 -305 21 -203 -1 -277
-4 -300 -14z m537 -341 l0 -230 -238 0 -238 0 -3 220 c-1 121 0 225 3 232 3
11 55 13 240 11 l236 -3 0 -230z"/>
</g>
</svg>
