<?xml version="1.0" standalone="no"?>
<!DOCTYPE svg PUBLIC "-//W3C//DTD SVG 20010904//EN"
 "http://www.w3.org/TR/2001/REC-SVG-20010904/DTD/svg10.dtd">
<svg version="1.0" xmlns="http://www.w3.org/2000/svg"
 width="634.000000pt" height="393.000000pt" viewBox="0 0 634.000000 393.000000"
 preserveAspectRatio="xMidYMid meet">

<g transform="translate(0.000000,393.000000) scale(0.100000,-0.100000)"
fill="#5578ff" stroke="none">
<path d="M3025 3870 c-11 -5 -38 -9 -60 -9 -22 -1 -53 -8 -69 -16 -15 -8 -36
-15 -45 -15 -9 0 -47 -16 -85 -35 -39 -19 -76 -35 -83 -35 -7 0 -13 -4 -13 -9
0 -5 -16 -16 -35 -25 -19 -9 -35 -21 -35 -26 0 -6 -6 -10 -12 -10 -30 0 -218
-202 -263 -281 -51 -92 -75 -141 -75 -153 0 -7 -9 -31 -20 -54 -11 -22 -20
-51 -20 -64 0 -13 -7 -45 -15 -72 -20 -67 -20 -275 0 -342 8 -27 15 -61 15
-76 0 -15 10 -49 21 -75 56 -124 72 -158 78 -163 3 -3 17 -26 31 -52 13 -27
28 -48 33 -48 4 0 11 -8 14 -17 8 -22 177 -193 190 -193 6 0 17 -7 24 -16 7
-9 22 -20 34 -25 11 -5 38 -21 60 -34 22 -14 47 -28 55 -31 8 -3 28 -12 43
-20 16 -7 39 -14 52 -14 13 0 26 -4 29 -9 10 -15 104 -33 254 -47 85 -8 214 7
317 37 74 22 97 31 185 74 85 42 99 50 137 84 19 17 36 31 38 31 2 0 25 21 52
48 68 67 136 149 165 202 14 25 34 61 45 80 31 56 61 148 87 266 40 183 1 428
-101 622 -62 120 -64 123 -79 129 -8 3 -14 10 -14 17 0 14 -184 196 -199 196
-6 0 -11 3 -11 8 0 4 -16 16 -35 26 -19 11 -35 23 -35 28 0 4 -6 8 -13 8 -7 0
-44 16 -83 35 -38 19 -77 35 -87 35 -10 0 -28 5 -40 12 -12 7 -49 16 -82 21
-88 13 -327 18 -350 7z m280 -461 c-4 -11 -20 -41 -37 -65 l-29 -44 -250 0
c-275 0 -281 1 -240 59 12 16 21 32 21 36 0 4 8 14 18 21 13 10 76 13 270 14
253 0 253 0 247 -21z m132 4 c3 -10 14 -27 24 -38 9 -11 27 -39 39 -63 12 -23
26 -45 32 -48 5 -3 14 -16 19 -27 13 -29 25 -48 80 -132 25 -39 60 -92 77
-120 17 -27 35 -55 39 -61 17 -23 34 -50 43 -71 5 -13 14 -23 20 -23 5 0 10
-7 10 -15 0 -12 -15 -15 -79 -15 -73 0 -81 2 -93 23 -7 13 -24 40 -36 60 l-24
37 -118 0 -119 0 11 31 c6 17 17 33 24 36 8 3 14 11 14 19 0 23 33 54 57 54
31 0 33 10 12 45 -10 17 -24 40 -30 53 -7 12 -15 22 -19 22 -4 0 -12 -10 -19
-22 -6 -13 -20 -36 -31 -53 -11 -16 -23 -37 -26 -45 -4 -8 -14 -23 -22 -33
-17 -19 -36 -50 -51 -82 -5 -12 -16 -27 -25 -34 -9 -7 -16 -20 -16 -28 0 -7
-7 -16 -15 -19 -8 -4 -15 -11 -15 -17 0 -6 -7 -19 -17 -29 -15 -17 -39 -18
-334 -18 -203 0 -320 4 -324 10 -6 9 23 58 52 88 7 7 13 19 13 26 0 7 9 21 20
31 11 10 20 24 20 30 0 7 7 18 15 25 27 23 17 39 -27 42 -23 2 -43 8 -45 14
-2 6 8 26 22 45 14 19 28 42 31 52 6 16 27 17 250 17 170 0 244 -3 244 -11 0
-14 -30 -67 -54 -96 -18 -21 -27 -23 -127 -23 l-107 0 -16 -34 c-8 -18 -22
-39 -31 -46 -8 -7 -15 -19 -15 -26 0 -11 30 -14 157 -14 132 0 159 3 175 17
10 9 18 22 18 30 0 7 4 13 9 13 5 0 16 12 23 28 21 41 42 76 49 82 3 3 14 20
23 38 9 17 20 32 24 32 4 0 13 13 20 29 7 15 27 50 44 77 17 27 47 73 66 102
36 55 49 63 59 35z m-760 -681 c21 -17 26 -31 24 -64 -1 -25 -38 -23 -51 2
-11 21 -73 29 -84 11 -14 -23 7 -41 48 -41 65 0 86 -21 86 -84 0 -28 -5 -57
-12 -64 -7 -7 -42 -12 -89 -12 l-76 0 -7 32 c-9 45 36 71 49 27 5 -16 14 -19
38 -17 27 2 33 8 35 31 3 26 2 27 -42 27 -37 0 -48 5 -66 28 -27 33 -23 105 6
127 27 20 114 19 141 -3z m242 -8 c21 -26 26 -68 15 -110 -7 -26 -43 -44 -89
-44 -35 0 -35 0 -35 -45 0 -43 -1 -45 -30 -45 l-30 0 0 135 0 135 74 0 c69 0
76 -2 95 -26z m216 14 l26 -11 -3 -121 -3 -121 -85 0 -85 0 -3 120 c-2 116 -2
120 20 131 31 16 101 17 133 2z m243 -6 c35 -27 40 -86 12 -125 l-23 -31 21
-39 c25 -46 22 -57 -18 -57 -24 0 -31 5 -36 28 -9 45 -26 72 -45 72 -14 0 -19
-10 -21 -47 -3 -41 -6 -48 -25 -51 -21 -3 -22 0 -25 123 -2 71 1 130 7 136 17
16 128 10 153 -9z m237 -12 c0 -21 -5 -26 -32 -28 l-33 -3 0 -105 0 -104 -30
0 -30 0 0 105 0 105 -30 0 c-32 0 -47 18 -36 45 5 13 22 15 98 13 92 -3 93 -3
93 -28z m190 14 c17 -11 25 -26 25 -45 0 -38 -17 -46 -44 -20 -13 12 -36 21
-55 21 -28 0 -32 -3 -29 -22 2 -18 10 -24 38 -26 19 -1 48 -8 63 -14 27 -10
28 -13 25 -77 l-3 -66 -86 -3 c-85 -3 -87 -2 -93 22 -13 51 19 75 47 35 11
-15 23 -20 48 -17 29 2 35 7 37 31 3 26 2 27 -47 27 -42 0 -53 4 -70 26 -29
36 -28 97 1 124 27 25 107 28 143 4z"/>
<path d="M2810 2660 c0 -27 3 -30 30 -30 27 0 30 3 30 30 0 27 -3 30 -30 30
-27 0 -30 -3 -30 -30z"/>
<path d="M3037 2684 c-10 -10 -9 -136 2 -152 5 -8 21 -12 37 -10 l29 3 0 80 0
80 -30 3 c-17 2 -34 0 -38 -4z"/>
<path d="M3270 2660 c0 -29 2 -31 33 -28 27 2 32 7 32 28 0 21 -5 26 -32 28
-31 3 -33 1 -33 -28z"/>
<path d="M1115 1621 c-22 -10 -52 -21 -67 -25 -16 -3 -28 -11 -28 -16 0 -6 -7
-10 -15 -10 -19 0 -125 -106 -125 -125 0 -8 -4 -15 -10 -15 -5 0 -12 -11 -16
-25 -3 -13 -12 -29 -20 -36 -7 -6 -25 -34 -39 -63 -15 -28 -37 -69 -50 -91
-14 -22 -29 -51 -35 -65 -6 -14 -16 -29 -23 -35 -7 -5 -22 -30 -35 -55 -12
-25 -33 -63 -47 -85 -13 -22 -30 -51 -38 -65 -32 -60 -43 -75 -54 -83 -7 -4
-13 -13 -13 -20 0 -7 -9 -23 -20 -37 -11 -14 -20 -33 -20 -42 0 -10 -4 -18 -8
-18 -5 0 -16 -15 -26 -32 -9 -18 -32 -60 -51 -93 -19 -33 -40 -71 -47 -85 -7
-14 -26 -45 -43 -70 -17 -25 -41 -65 -54 -90 -12 -25 -34 -63 -47 -85 -13 -22
-31 -53 -40 -70 -9 -16 -20 -32 -23 -35 -8 -7 -41 -79 -41 -90 0 -6 80 -10
205 -10 176 0 205 2 205 15 0 8 5 15 11 15 5 0 17 15 25 32 22 49 78 146 92
160 7 7 12 20 12 30 0 9 6 21 13 25 7 4 18 19 25 33 26 51 78 140 90 152 7 7
12 19 12 28 0 9 9 25 20 35 11 10 20 24 20 30 0 7 7 16 16 19 9 3 181 6 383 6
l367 0 22 43 c13 23 34 60 47 82 14 22 29 49 34 60 5 12 16 27 25 34 9 7 16
22 16 32 0 10 6 22 13 26 6 4 20 25 29 46 l18 37 -365 0 -365 0 0 22 c0 12 7
30 17 40 17 19 21 25 67 110 16 29 37 65 48 81 l19 27 375 0 375 0 10 30 c6
17 15 30 19 30 4 0 13 12 19 28 6 15 22 45 36 67 13 22 41 73 61 112 20 40 40
75 45 79 34 21 -30 24 -488 24 -459 0 -501 -2 -538 -19z"/>
<path d="M2450 1628 c-14 -6 -36 -15 -50 -20 -84 -34 -178 -109 -200 -161 -5
-12 -21 -40 -35 -62 -14 -22 -30 -51 -36 -65 -5 -13 -14 -27 -18 -30 -5 -3
-18 -25 -29 -50 -12 -25 -31 -61 -43 -80 -12 -19 -34 -57 -48 -85 -31 -57 -66
-115 -78 -130 -4 -5 -19 -32 -33 -60 -14 -27 -29 -53 -33 -56 -9 -7 -26 -34
-52 -84 -9 -16 -25 -46 -37 -65 -11 -19 -34 -60 -50 -90 -16 -30 -35 -61 -42
-70 -7 -8 -16 -22 -20 -30 -3 -8 -17 -33 -31 -55 -13 -22 -35 -60 -47 -85 -12
-25 -31 -55 -42 -68 -16 -18 -21 -37 -21 -89 0 -65 0 -65 45 -104 l45 -39 484
2 484 3 19 30 c10 17 22 39 28 50 5 11 21 38 35 60 13 22 31 54 40 70 8 17 24
44 34 60 11 17 32 55 48 85 15 30 31 59 36 65 18 25 54 84 75 125 12 25 30 55
39 68 l16 22 -214 -2 -214 -3 -20 -37 c-11 -20 -32 -57 -47 -83 -16 -26 -28
-51 -28 -56 0 -5 -4 -9 -8 -9 -5 0 -14 -15 -22 -34 -7 -19 -22 -37 -34 -40
-39 -11 -294 -7 -301 5 -4 5 -1 18 7 27 8 9 21 33 28 52 7 19 18 42 24 50 7 8
22 35 35 60 13 25 29 52 35 60 11 16 21 31 64 109 13 25 32 57 41 71 9 14 22
34 29 45 7 11 17 32 23 48 6 15 15 27 19 27 4 0 13 12 19 28 6 15 22 45 36 67
14 22 30 49 35 60 11 22 23 42 59 98 l24 37 153 0 c150 0 154 -1 154 -21 0
-11 -9 -32 -20 -46 -11 -14 -20 -32 -20 -39 0 -8 -4 -14 -9 -14 -5 0 -14 -12
-20 -27 -10 -27 -18 -40 -53 -95 -10 -14 -18 -31 -18 -37 0 -8 63 -11 203 -11
l203 0 21 28 c11 15 23 37 27 50 4 12 12 22 17 22 5 0 9 6 9 14 0 7 9 25 20
39 11 14 20 32 20 41 0 9 4 16 8 16 5 0 16 15 25 33 10 17 27 48 38 67 12 19
34 58 48 85 15 28 40 70 56 95 16 25 40 66 52 92 13 26 28 50 33 53 6 4 8 11
5 16 -9 13 -993 11 -1025 -3z"/>
<path d="M3942 1615 c-35 -12 -68 -27 -75 -34 -6 -6 -16 -11 -22 -11 -17 0
-123 -109 -131 -133 -3 -12 -13 -29 -20 -38 -8 -9 -27 -40 -42 -70 -37 -71
-54 -100 -69 -117 -7 -7 -13 -20 -13 -27 0 -8 -8 -22 -19 -32 -10 -10 -21 -28
-24 -40 -5 -23 -4 -23 121 -25 70 -1 165 -1 212 1 89 3 93 5 126 66 31 57 57
101 66 113 8 8 50 12 148 12 76 0 145 -2 153 -6 12 -4 12 -10 -4 -40 -9 -19
-22 -40 -27 -47 -5 -7 -24 -39 -42 -72 -50 -91 -54 -98 -74 -127 l-18 -28
-269 0 c-168 0 -287 -4 -316 -11 -55 -14 -129 -47 -153 -69 -8 -8 -32 -26 -53
-40 -20 -14 -39 -32 -42 -42 -3 -9 -12 -19 -20 -22 -8 -3 -15 -10 -15 -16 0
-6 -16 -36 -35 -66 -19 -30 -35 -61 -35 -69 0 -8 -4 -15 -10 -15 -5 0 -17 -15
-25 -33 -26 -54 -73 -137 -86 -154 -14 -16 -31 -43 -48 -78 -6 -11 -22 -38
-36 -60 -13 -22 -31 -53 -40 -70 -8 -16 -24 -43 -34 -60 -28 -42 -51 -87 -51
-97 0 -4 260 -8 578 -8 l578 0 22 30 c12 16 22 36 22 43 0 8 7 20 14 27 8 6
25 33 37 58 13 26 29 53 35 60 7 6 16 22 20 34 4 12 13 28 20 36 8 7 14 19 14
26 0 8 7 19 15 26 8 7 12 16 9 21 -3 5 -161 9 -360 8 -196 0 -358 1 -360 4 -3
2 11 32 31 65 19 33 35 64 35 69 0 5 10 19 23 31 23 22 27 22 383 22 l361 0
19 22 c11 13 30 43 43 68 13 25 34 63 47 85 13 22 27 47 30 55 4 8 14 23 22
33 18 20 26 35 67 114 17 32 34 62 38 68 13 16 48 75 77 130 39 72 52 95 85
145 92 142 96 216 16 278 l-43 32 -396 -1 c-383 -2 -399 -3 -460 -24z"/>
<path d="M5134 1613 c-21 -31 -68 -115 -87 -153 -6 -14 -17 -31 -24 -38 -7 -7
-16 -24 -19 -38 -3 -13 -10 -24 -14 -24 -4 0 -13 -12 -19 -27 -6 -16 -20 -43
-31 -60 -46 -75 -60 -100 -75 -128 -8 -16 -24 -46 -36 -65 -12 -19 -34 -59
-50 -89 -16 -30 -33 -59 -38 -65 -5 -6 -13 -32 -19 -58 -19 -92 16 -176 96
-232 l38 -26 212 0 c181 0 214 -2 218 -15 4 -8 2 -21 -4 -28 -6 -6 -25 -39
-42 -72 -18 -33 -39 -67 -46 -76 -8 -8 -14 -21 -14 -27 0 -6 -6 -17 -12 -24
-15 -16 -38 -55 -73 -124 -14 -29 -32 -57 -40 -64 -8 -7 -15 -18 -15 -26 0 -7
-11 -30 -25 -50 -14 -20 -25 -41 -25 -46 0 -4 92 -7 207 -6 201 3 208 4 218
24 6 12 16 28 21 35 6 8 30 50 54 94 24 44 47 85 51 91 5 6 20 31 33 55 54
100 62 114 73 127 7 7 16 24 19 37 3 13 12 26 20 29 8 3 14 14 14 24 0 33 23
41 130 44 117 3 100 -8 166 113 15 28 42 74 60 103 19 29 34 56 34 61 0 5 7
14 15 21 8 7 15 21 15 31 0 17 -9 19 -90 19 -49 0 -90 3 -90 6 0 8 48 102 76
149 13 22 28 49 34 60 5 11 21 38 35 60 14 22 29 49 34 60 5 12 16 27 25 34 9
7 16 22 16 32 0 10 5 21 11 24 5 4 14 17 19 28 6 12 21 40 35 62 14 22 28 47
31 55 4 8 15 24 25 35 10 11 21 32 24 48 l7 27 -210 0 -211 0 -30 -57 c-17
-32 -37 -73 -46 -90 -8 -18 -20 -33 -25 -33 -6 0 -10 -8 -10 -17 0 -9 -7 -24
-15 -33 -8 -9 -29 -43 -46 -76 -32 -60 -42 -78 -84 -149 -13 -22 -36 -62 -50
-90 -15 -27 -37 -68 -49 -90 l-22 -40 -162 -3 c-137 -2 -162 0 -162 12 0 8 5
18 10 21 6 3 10 12 10 20 0 12 30 64 57 100 5 6 18 30 30 55 13 25 34 63 48
85 14 22 32 54 40 70 9 17 24 44 35 62 25 42 86 150 107 191 9 17 20 32 25 32
4 0 8 7 8 15 0 13 -29 15 -204 15 l-204 0 -18 -27z"/>
</g>
</svg>
