<?xml version="1.0" standalone="no"?>
<!DOCTYPE svg PUBLIC "-//W3C//DTD SVG 20010904//EN"
 "http://www.w3.org/TR/2001/REC-SVG-20010904/DTD/svg10.dtd">
<svg version="1.0" xmlns="http://www.w3.org/2000/svg"
 width="500.000000pt" height="500.000000pt" viewBox="0 0 500.000000 500.000000"
 preserveAspectRatio="xMidYMid meet">

<g transform="translate(0.000000,500.000000) scale(0.100000,-0.100000)"
fill="#ff5e14" stroke="none">
<path d="M4770 4966 c-334 -77 -721 -196 -995 -306 -166 -67 -471 -215 -662
-320 -277 -154 -620 -394 -879 -614 -165 -141 -489 -464 -628 -628 -208 -245
-437 -560 -580 -801 l-58 -97 -72 0 c-83 0 -151 -27 -204 -80 -32 -32 -212
-375 -212 -404 0 -7 9 -25 21 -40 20 -25 50 -33 83 -20 9 3 53 78 97 165 45
88 90 171 101 184 31 40 75 58 127 52 37 -4 52 -13 83 -46 56 -60 54 -101 -16
-234 -211 -401 -406 -916 -516 -1360 -43 -172 -54 -206 -78 -230 -56 -56 -145
-53 -199 7 -28 30 -33 43 -33 86 0 145 147 644 304 1030 26 63 47 128 48 144
2 55 -67 85 -111 49 -61 -51 -308 -788 -373 -1113 -18 -91 -19 -113 -8 -163
21 -102 114 -196 215 -217 103 -21 193 9 268 89 50 53 49 51 112 311 20 85 64
238 97 340 58 179 182 507 198 523 4 5 17 -7 29 -26 32 -52 106 -116 167 -144
64 -29 187 -41 246 -25 l38 10 34 -61 c32 -57 34 -65 24 -102 -15 -56 -3 -108
33 -144 56 -57 141 -60 197 -9 92 87 55 222 -70 252 -21 5 -35 21 -58 66 l-30
60 41 53 c63 78 90 145 96 235 11 163 -78 312 -227 381 -44 20 -75 26 -152 29
l-98 4 0 64 c0 69 -15 116 -56 176 l-26 37 38 63 c54 89 247 379 313 468 493
671 1112 1213 1838 1609 315 172 764 353 1150 464 138 40 173 49 173 44 0 -2
-57 -51 -127 -108 -610 -494 -973 -895 -1096 -1207 -42 -107 -49 -250 -17
-334 28 -75 105 -159 173 -191 96 -45 147 -50 462 -42 329 8 356 5 407 -53 28
-33 30 -39 25 -93 -9 -100 -100 -251 -249 -413 l-73 -79 -122 13 c-182 19
-454 8 -609 -24 -252 -53 -492 -164 -636 -294 l-38 -35 -83 7 c-141 11 -278
-16 -358 -73 -170 -120 -136 -491 66 -718 51 -57 53 -61 64 -146 29 -217 121
-427 249 -569 40 -44 87 -52 117 -18 32 35 23 70 -34 140 -62 77 -132 216
-160 318 -109 398 32 834 336 1040 60 41 215 122 233 122 5 0 10 -12 10 -27 0
-49 37 -207 63 -271 52 -129 158 -269 257 -337 22 -15 40 -30 40 -34 0 -3 -59
-37 -131 -76 -208 -110 -286 -197 -309 -341 -20 -126 29 -264 125 -353 102
-93 239 -122 394 -82 46 11 89 25 96 31 6 5 27 39 45 75 18 36 56 90 84 119
50 51 142 114 152 103 3 -3 -2 -39 -10 -81 -22 -106 -21 -229 4 -307 21 -69
75 -157 139 -231 23 -25 41 -49 41 -53 0 -4 -42 -5 -92 -3 -109 4 -169 28
-256 103 -59 50 -78 53 -155 30 -154 -46 -400 -39 -557 16 -121 43 -152 46
-179 18 -46 -49 -20 -95 76 -132 196 -76 408 -93 636 -51 l78 15 48 -35 c165
-121 359 -145 529 -66 58 27 82 54 82 91 0 5 -39 51 -86 101 -91 95 -155 186
-175 245 -21 64 -7 215 30 318 43 122 46 140 27 170 -14 21 -24 25 -64 25
-168 -1 -367 -128 -462 -297 -33 -58 -38 -63 -83 -73 -101 -21 -177 -5 -241
51 -61 54 -88 114 -88 193 0 119 43 169 242 276 254 136 457 289 520 392 26
43 25 64 -5 93 -38 39 -65 32 -126 -32 -68 -74 -170 -163 -187 -163 -24 0
-128 78 -180 135 -100 110 -166 267 -179 426 l-6 77 69 15 c162 37 214 42 414
42 113 0 222 -4 243 -8 l39 -8 -7 -42 c-4 -23 -16 -73 -27 -112 -32 -118 -33
-140 -9 -164 28 -28 72 -27 99 1 23 26 55 131 77 256 l15 83 80 87 c203 221
300 395 300 542 0 84 -45 170 -114 215 -28 18 -71 39 -96 46 -55 15 -217 17
-455 5 -205 -10 -281 2 -345 52 -263 208 121 764 1030 1491 107 86 239 188
292 226 53 39 102 82 108 96 19 44 -17 101 -62 98 -7 0 -78 -15 -158 -33z
m-2220 -3228 c-71 -119 -148 -319 -151 -392 0 -11 -4 -30 -8 -41 -7 -17 -11
-13 -34 25 -68 118 -89 312 -41 377 39 52 113 78 227 82 l39 1 -32 -52z
m-1164 -63 c92 -57 138 -159 117 -259 -11 -50 -49 -126 -65 -126 -4 0 -30 44
-59 98 -28 53 -61 107 -72 120 -40 44 -117 17 -117 -40 0 -18 22 -73 55 -133
30 -57 55 -109 55 -115 0 -19 -108 -6 -157 18 -47 24 -100 81 -120 130 -20 49
-18 142 5 194 23 53 74 105 127 130 63 29 168 22 231 -17z"/>
<path d="M3612 1974 c-31 -21 -29 -74 4 -124 30 -45 63 -58 100 -41 56 25 53
88 -6 151 -31 33 -64 38 -98 14z"/>
</g>
</svg>
